<?xml version="1.0" standalone="no"?>
<!DOCTYPE svg PUBLIC "-//W3C//DTD SVG 20010904//EN"
 "http://www.w3.org/TR/2001/REC-SVG-20010904/DTD/svg10.dtd">
<svg version="1.0" xmlns="http://www.w3.org/2000/svg"
 width="225.000000pt" height="225.000000pt" viewBox="0 0 225.000000 225.000000"
 preserveAspectRatio="xMidYMid meet">

<g transform="translate(0.000000,225.000000) scale(0.100000,-0.100000)"
fill="#000000" stroke="none">
<path d="M1054 2146 c-48 -48 -47 -95 1 -143 33 -33 35 -38 35 -104 l0 -69
-49 0 c-27 0 -53 -6 -59 -12 -5 -7 -18 -42 -28 -77 -15 -56 -21 -65 -53 -78
-32 -14 -37 -13 -70 7 -20 11 -51 28 -69 37 l-32 17 -40 -39 -41 -40 -48 52
c-46 49 -49 55 -44 93 5 35 2 43 -30 75 -71 71 -177 26 -177 -76 0 -22 10 -41
35 -66 32 -32 40 -35 76 -30 37 5 43 2 92 -43 l52 -48 -39 -41 -40 -41 17 -32
c9 -18 26 -49 37 -69 20 -33 21 -38 7 -70 -13 -32 -22 -38 -78 -53 -35 -10
-70 -23 -76 -28 -7 -6 -13 -32 -13 -59 l0 -49 -69 0 c-66 0 -71 2 -104 35 -48
48 -95 49 -143 1 -47 -47 -47 -95 0 -142 48 -48 95 -47 143 1 33 33 38 35 104
35 l69 0 0 -49 c0 -56 8 -65 70 -81 25 -6 53 -13 63 -16 9 -3 25 -20 33 -37
16 -31 16 -32 -22 -104 l-39 -72 37 -38 38 -39 -50 -49 c-44 -44 -54 -49 -96
-50 -39 0 -51 -6 -75 -33 -88 -99 45 -231 143 -143 29 26 33 35 33 80 0 47 3
54 48 97 l48 48 37 -37 c21 -20 42 -37 47 -37 6 0 37 16 69 36 87 52 127 36
152 -61 9 -33 20 -66 26 -72 6 -7 32 -13 59 -13 l49 0 0 -74 c0 -66 -2 -75
-20 -81 -11 -4 -27 -19 -35 -35 -23 -45 -19 -85 14 -122 25 -28 36 -33 76 -33
40 0 51 5 76 33 42 47 40 93 -6 139 -33 33 -35 38 -35 104 l0 69 49 0 c27 0
53 6 59 13 6 7 18 42 27 78 16 63 19 67 54 79 35 11 40 10 96 -24 33 -20 63
-36 67 -36 5 0 26 17 49 37 l41 37 48 -52 c45 -48 48 -55 43 -92 -5 -35 -2
-43 30 -75 25 -25 44 -35 66 -35 97 0 145 101 82 172 -24 27 -36 33 -75 33
-42 1 -52 6 -96 50 l-49 48 34 39 c19 21 35 41 35 46 0 4 -16 34 -36 67 -34
56 -35 61 -24 96 12 35 16 38 79 54 36 9 71 21 78 27 7 6 13 32 13 59 l0 49
69 0 c66 0 71 -2 104 -35 46 -46 92 -48 139 -6 28 25 33 36 33 76 0 40 -5 51
-33 76 -37 33 -77 37 -122 14 -16 -8 -31 -24 -35 -35 -6 -18 -15 -20 -81 -20
l-74 0 0 49 c0 27 -6 53 -12 59 -7 6 -40 17 -73 26 -97 25 -113 65 -61 152 20
32 36 63 36 69 0 5 -17 26 -37 47 l-37 37 48 48 c43 45 50 48 97 48 45 0 54 4
80 33 63 71 16 172 -82 172 -22 0 -41 -10 -66 -35 -31 -31 -35 -40 -30 -74 4
-36 1 -42 -47 -90 l-52 -51 -34 35 c-19 19 -39 35 -45 35 -6 0 -38 -16 -70
-35 -53 -32 -61 -34 -92 -24 -38 12 -45 23 -62 94 -17 67 -25 75 -82 75 l-49
0 0 69 c0 66 2 71 35 104 48 48 49 95 1 143 -26 26 -42 34 -71 34 -29 0 -45
-8 -71 -34z m177 -442 c16 -70 29 -84 101 -113 l58 -23 57 36 58 35 67 -67
c62 -60 66 -68 55 -87 -7 -11 -23 -37 -36 -58 l-23 -37 23 -58 c29 -72 43 -85
113 -101 l56 -12 0 -94 0 -94 -56 -12 c-70 -16 -86 -30 -114 -101 l-22 -57 36
-58 35 -58 -67 -67 c-60 -62 -68 -66 -87 -55 -11 7 -37 24 -58 36 l-38 23 -57
-22 c-71 -28 -85 -44 -101 -114 l-12 -56 -94 0 -94 0 -12 56 c-16 70 -29 84
-101 113 l-58 23 -37 -23 c-21 -13 -47 -29 -58 -36 -19 -11 -27 -7 -87 55
l-67 67 35 58 36 57 -23 58 c-29 72 -43 85 -113 101 l-56 12 0 93 0 93 65 18
c73 19 73 19 104 97 l23 58 -23 37 c-13 21 -29 47 -36 58 -11 19 -7 27 55 87
l67 67 58 -35 57 -36 58 23 c78 31 78 31 97 104 l18 65 93 0 93 0 12 -56z"/>
<path d="M1040 1539 c-75 -15 -163 -64 -219 -124 -154 -162 -157 -406 -9 -570
164 -181 437 -188 609 -16 293 293 27 790 -381 710z m101 -139 c10 -6 19 -21
19 -34 0 -20 7 -24 41 -30 62 -10 113 -75 95 -122 -9 -23 -60 -14 -64 11 -4
24 -29 45 -54 45 -15 0 -18 -9 -18 -54 l0 -53 38 -7 c73 -11 121 -97 92 -166
-15 -36 -52 -65 -97 -75 -26 -5 -33 -12 -33 -30 0 -13 -8 -28 -17 -34 -25 -13
-53 4 -53 33 0 20 -7 24 -39 30 -58 9 -93 43 -95 92 -1 37 1 39 29 39 22 0 31
-5 33 -20 4 -24 29 -45 54 -45 15 0 18 9 18 54 l0 53 -38 7 c-85 13 -128 114
-80 186 17 25 36 39 71 49 37 11 47 19 47 36 0 18 16 45 28 45 2 0 12 -5 23
-10z"/>
<path d="M1042 1254 c-27 -18 -29 -55 -4 -77 37 -33 52 -22 52 38 0 60 -9 67
-48 39z"/>
<path d="M1160 1034 c0 -53 1 -55 23 -48 50 15 63 56 29 87 -37 34 -52 22 -52
-39z"/>
</g>
</svg>
